<svg width="432" height="150" viewBox="0 0 432 150" fill="none" xmlns="http://www.w3.org/2000/svg">
<path d="M111.8 99V116.4H94.8V143H76.2V116.4H4.8V99L55 2.99999H75L24.8 99H76.2V59.4H94.8V99H111.8Z" fill="black"/>
<rect x="141" width="150" height="150" rx="75" fill="#1B1922"/>
<g clip-path="url(#clip0_2685_5202)">
<path d="M224.282 36.4963C224.135 36.0267 223.841 35.6164 223.445 35.3249C223.048 35.0333 222.569 34.8758 222.077 34.875H209.944C209.451 34.8765 208.97 35.0357 208.573 35.3293C208.177 35.623 207.884 36.0357 207.738 36.5073L196.433 72.397C196.342 72.6825 196.32 72.9857 196.37 73.2812C196.42 73.5767 196.54 73.856 196.72 74.0956C196.896 74.3371 197.127 74.5338 197.393 74.6698C197.659 74.8059 197.954 74.8774 198.253 74.8787H203.117V83.2169C202.505 83.4433 201.993 83.8776 201.669 84.4437C201.346 85.0098 201.231 85.6717 201.346 86.3136C201.461 86.9555 201.798 87.5365 202.298 87.955C202.799 88.3735 203.43 88.6028 204.082 88.6028C204.734 88.6028 205.365 88.3735 205.866 87.955C206.366 87.5365 206.703 86.9555 206.818 86.3136C206.933 85.6717 206.819 85.0098 206.495 84.4437C206.171 83.8776 205.659 83.4433 205.047 83.2169V74.8787H212.602V105.651L202.797 112.787C202.575 112.946 202.41 113.172 202.325 113.432C202.239 113.692 202.239 113.972 202.323 114.232C202.405 114.492 202.568 114.718 202.788 114.879C203.009 115.04 203.274 115.126 203.547 115.125H228.485C228.757 115.126 229.023 115.04 229.243 114.879C229.463 114.718 229.627 114.492 229.709 114.232C229.793 113.972 229.792 113.692 229.707 113.432C229.622 113.172 229.456 112.946 229.235 112.787L219.429 105.651V74.8787H233.768C234.067 74.8774 234.361 74.8059 234.628 74.6698C234.894 74.5338 235.124 74.3371 235.301 74.0956C235.481 73.856 235.601 73.5767 235.651 73.2812C235.701 72.9857 235.679 72.6825 235.588 72.397L224.282 36.4963ZM226.488 113.195H205.532L214.543 106.643V74.8787H217.455V106.699L226.488 113.195ZM198.253 72.9816L209.547 37.0809C209.571 37.0004 209.621 36.9299 209.688 36.8801C209.756 36.8304 209.838 36.804 209.922 36.8051H222.054C222.138 36.804 222.22 36.8304 222.288 36.8801C222.356 36.9299 222.405 37.0004 222.429 37.0809L233.724 72.9485L198.253 72.9816Z" fill="#EAE4E1"/>
</g>
<path d="M426.8 99V116.4H409.8V143H391.2V116.4H319.8V99L370 2.99999H390L339.8 99H391.2V59.4H409.8V99H426.8Z" fill="black"/>
<defs>
<clipPath id="clip0_2685_5202">
<rect width="39.3199" height="80.25" fill="white" transform="translate(196.344 34.875)"/>
</clipPath>
</defs>
</svg>
