<svg width="160" height="61" viewBox="0 0 160 61" fill="none" xmlns="http://www.w3.org/2000/svg">
<path d="M2.0995 60.8305H0.013987V50.7078H2.0995V60.8305Z" fill="white"/>
<path d="M14.9723 60.8305H12.8868L8.82512 54.1709V60.8305H6.73939V50.7078H8.82512L12.8916 57.3824V50.7078H14.9723V60.8305Z" fill="white"/>
<path d="M26.9195 52.3972H23.8166V60.8305H21.7311V52.3972H18.6721V50.7081H26.9195V52.3972Z" fill="white"/>
<path d="M36.9044 56.4424H32.8975V59.1562H37.5979V60.8305H30.8125V50.7081H37.5856V52.3972H32.8975V54.8091H36.9044V56.4424Z" fill="white"/>
<path d="M45.2749 57.1239H43.612V60.8305H41.5272V50.7084H45.2896C46.4855 50.7084 47.4063 50.974 48.0565 51.5083C48.7039 52.0393 49.0305 52.7932 49.0305 53.7673C49.0305 54.4586 48.88 55.0334 48.5807 55.4952C48.2807 55.9568 47.8292 56.324 47.2228 56.597L49.4124 60.7339V60.8305H47.1716L45.2749 57.1239ZM43.612 55.4348H45.297C45.8187 55.4348 46.2245 55.3017 46.5122 55.0358C46.8001 54.7702 46.9425 54.4028 46.9425 53.9341C46.9425 53.4556 46.8069 53.0811 46.5361 52.8079C46.2661 52.5324 45.8497 52.3972 45.2896 52.3972H43.612V55.4348Z" fill="white"/>
<path d="M55.54 60.8305H53.4544V50.7078H55.54V60.8305Z" fill="white"/>
<path d="M68.4949 55.9979C68.4949 56.9957 68.3182 57.8683 67.9682 58.62C67.6155 59.3714 67.1104 59.9514 66.4553 60.357C65.7977 60.7652 65.0468 60.9704 64.1987 60.9704C63.3602 60.9704 62.6112 60.7679 61.9536 60.3643C61.2936 59.9604 60.7841 59.3856 60.424 58.6363C60.0618 57.8873 59.8778 57.0273 59.8729 56.0535V55.5529C59.8729 54.5576 60.0541 53.6804 60.4118 52.9216C60.7719 52.1628 61.2789 51.5831 61.9365 51.177C62.5916 50.7715 63.3406 50.5679 64.1837 50.5679C65.0272 50.5679 65.7789 50.7715 66.4332 51.177C67.0908 51.5831 67.5984 52.1628 67.956 52.9216C68.3166 53.6804 68.4949 54.5552 68.4949 55.5456V55.9979ZM66.3826 55.5388C66.3826 54.4781 66.1918 53.6709 65.8124 53.1198C65.4305 52.5686 64.8897 52.2935 64.1837 52.2935C63.4854 52.2935 62.9448 52.5637 62.5646 53.11C62.1858 53.6538 61.992 54.4537 61.9874 55.5048V55.9979C61.9874 57.0322 62.1784 57.834 62.5578 58.4047C62.9367 58.9749 63.4854 59.2604 64.1987 59.2604C64.8995 59.2604 65.436 58.9847 65.8124 58.436C66.1869 57.8854 66.3782 57.0855 66.3826 56.0339V55.5388Z" fill="white"/>
<path d="M76.462 57.1239H74.7994V60.8305H72.7143V50.7084H76.4767C77.6724 50.7084 78.5934 50.974 79.2436 51.5083C79.8905 52.0393 80.2177 52.7932 80.2177 53.7673C80.2177 54.4586 80.0672 55.0334 79.7678 55.4952C79.4679 55.9568 79.0161 56.324 78.4099 56.597L80.5987 60.7339V60.8305H78.3585L76.462 57.1239ZM74.7994 55.4348H76.4841C77.0058 55.4348 77.4116 55.3017 77.6996 55.0358C77.9865 54.7702 78.1296 54.4028 78.1296 53.9341C78.1296 53.4556 77.9938 53.0811 77.723 52.8079C77.453 52.5324 77.0368 52.3972 76.4767 52.3972H74.7994V55.4348Z" fill="white"/>
<path d="M90.7579 60.8305V50.7078H93.8729C94.762 50.7078 95.5595 50.9089 96.2603 51.3098C96.9631 51.7113 97.5117 52.279 97.9058 53.0182C98.2994 53.7577 98.4956 54.5987 98.4956 55.5391V56.0053C98.4956 56.9473 98.3018 57.7834 97.9151 58.516C97.5289 59.2479 96.9826 59.8159 96.2794 60.2198C95.5742 60.6229 94.7792 60.8259 93.8944 60.8305H90.7579ZM92.8433 52.3977V59.1564H93.8508C94.6673 59.1564 95.2911 58.8883 95.7214 58.3565C96.1539 57.8225 96.3735 57.0613 96.3839 56.0682V55.5342C96.3839 54.5043 96.1705 53.724 95.7435 53.1924C95.3175 52.6633 94.6943 52.3977 93.8729 52.3977H92.8433Z" fill="white"/>
<path d="M108.811 56.4424H104.805V59.1562H109.505V60.8305H102.719V50.7081H109.493V52.3972H104.805V54.8091H108.811V56.4424Z" fill="white"/>
<path d="M118.685 58.175C118.685 57.7809 118.547 57.4791 118.27 57.2662C117.992 57.0561 117.491 56.8338 116.766 56.5997C116.044 56.3651 115.471 56.1354 115.05 55.9087C113.9 55.287 113.325 54.4512 113.325 53.3976C113.325 52.8514 113.48 52.3634 113.787 51.9353C114.096 51.5053 114.538 51.1721 115.116 50.9302C115.693 50.6888 116.341 50.5679 117.059 50.5679C117.781 50.5679 118.427 50.6988 118.992 50.962C119.558 51.223 119.997 51.5926 120.308 52.0711C120.623 52.5471 120.778 53.0909 120.778 53.6973H118.692C118.692 53.2333 118.547 52.8735 118.255 52.6149C117.962 52.3588 117.551 52.2306 117.025 52.2306C116.515 52.2306 116.119 52.337 115.836 52.5545C115.553 52.7698 115.411 53.0517 115.411 53.405C115.411 53.7338 115.578 54.0087 115.908 54.2313C116.24 54.4561 116.728 54.664 117.373 54.857C118.559 55.2152 119.422 55.6569 119.966 56.186C120.507 56.7151 120.778 57.3727 120.778 58.1603C120.778 59.038 120.447 59.7239 119.784 60.222C119.123 60.7195 118.228 60.9704 117.107 60.9704C116.329 60.9704 115.621 60.8281 114.981 60.5429C114.34 60.2579 113.852 59.8665 113.516 59.3714C113.18 58.8758 113.014 58.3007 113.014 57.6459H115.106C115.106 58.7648 115.773 59.3225 117.107 59.3225C117.603 59.3225 117.992 59.2212 118.27 59.0184C118.547 58.8179 118.685 58.5348 118.685 58.175Z" fill="white"/>
<path d="M127.112 60.8305H125.026V50.7078H127.112V60.8305Z" fill="white"/>
<path d="M139.762 59.5524C139.384 60.0021 138.855 60.3499 138.169 60.5987C137.483 60.8452 136.722 60.9707 135.888 60.9707C135.011 60.9707 134.245 60.7777 133.582 60.3956C132.923 60.0138 132.413 59.4583 132.053 58.7308C131.695 58.0035 131.509 57.1478 131.499 56.1648V55.4762C131.499 54.4659 131.671 53.5909 132.011 52.8514C132.352 52.1122 132.843 51.5469 133.486 51.1553C134.129 50.7636 134.88 50.5682 135.743 50.5682C136.941 50.5682 137.881 50.8559 138.558 51.4261C139.235 51.9984 139.636 52.8321 139.762 53.927H137.732C137.637 53.347 137.432 52.9243 137.116 52.6535C136.796 52.3852 136.362 52.2496 135.805 52.2496C135.095 52.2496 134.556 52.518 134.184 53.0504C133.815 53.5835 133.626 54.3761 133.621 55.4277V56.075C133.621 57.1356 133.822 57.9379 134.225 58.4796C134.629 59.0233 135.221 59.2939 135.999 59.2939C136.782 59.2939 137.34 59.127 137.674 58.7934V57.0488H135.777V55.5121H139.762V59.5524Z" fill="white"/>
<path d="M152.39 60.8305H150.305L146.243 54.1709V60.8305H144.157V50.7078H146.243L150.31 57.3824V50.7078H152.39V60.8305Z" fill="white"/>
<path d="M13.2161 18.1317C15.7262 16.9537 16.8537 14.5967 16.8537 10.909V9.62764C16.8537 4.09515 14.3428 1.38071 8.50355 1.38071H0V37.2391H8.86235C14.4968 37.2391 17.4171 34.2675 17.4171 28.736V25.8151C17.4171 22.0249 16.239 19.3092 13.2161 18.1317ZM5.63461 6.50337H8.34956C10.3478 6.50337 11.2179 7.63006 11.2179 10.191V12.1892C11.2179 15.0581 9.93782 15.9795 7.83759 15.9795H5.63461V6.50337ZM11.7818 28.582C11.7818 31.2457 10.7572 32.1166 8.86235 32.1166H5.63461V21.1022H8.14435C10.7066 21.1022 11.7818 22.1268 11.7818 25.4565V28.582Z" fill="white"/>
<path d="M21.3275 37.2391H36.6956V32.1166H26.9626V21.6154H34.0009V16.4924H26.9626V6.50337H36.6956V1.38081H21.3275V37.2391Z" fill="white"/>
<path d="M45.9741 1.38052H40.3389V37.2388H52.7582V32.1163H45.9741V1.38052Z" fill="white"/>
<path d="M61.5334 1.38052H55.8982V37.2388H67.5505L68.368 32.1163H61.5334V1.38052Z" fill="white"/>
<path d="M76.5314 1.38052L70.7941 37.2388H75.968L76.7998 31.6776H83.9986L84.8309 37.2388H90.3116L84.5743 1.38052H76.5314ZM80.3739 7.73242L83.0888 25.8669L83.2434 26.8464H77.514L77.659 25.8669L80.3739 7.73242Z" fill="white"/>
<path d="M106.434 21.007C108.945 19.8288 110.239 16.1338 110.239 12.4455V9.62793C110.239 4.09526 107.729 1.38032 101.889 1.38032H93.3851V37.2393H99.0198V22.6397H101.469L105.894 37.2483H111.566L106.353 21.045L106.434 21.007ZM99.0198 6.50274H101.735C103.733 6.50274 104.604 7.63028 104.604 10.1912V13.7256C104.604 16.5946 103.324 17.5173 101.223 17.5173H99.0198V6.50274Z" fill="white"/>
<path d="M123.407 1.38052H114.494V37.2388H123.407C129.043 37.2388 131.808 34.1143 131.808 28.377V10.2427C131.808 4.50479 129.043 1.38052 123.407 1.38052ZM126.174 28.6331C126.174 31.1948 125.098 32.1163 123.305 32.1163H120.129V6.50296H123.305C125.098 6.50296 126.174 7.42515 126.174 9.98662V28.6331Z" fill="white"/>
<path d="M143.803 0.970703C138.271 0.970703 135.249 4.24895 135.249 9.98684V28.6329C135.249 34.3707 138.271 37.6489 143.803 37.6489C149.337 37.6489 152.358 34.3707 152.358 28.6329V9.98684C152.358 4.24895 149.337 0.970703 143.803 0.970703ZM146.724 28.9916C146.724 31.5524 145.597 32.5265 143.803 32.5265C142.01 32.5265 140.884 31.5524 140.884 28.9916V9.62764C140.884 7.06657 142.01 6.09316 143.803 6.09316C145.597 6.09316 146.724 7.06657 146.724 9.62764V28.9916Z" fill="white"/>
<path d="M154.705 32.1166L153.887 37.2391H159.402V32.1166H154.705Z" fill="white"/>
</svg>
