<svg width="88" height="32" viewBox="0 0 88 32" fill="none" xmlns="http://www.w3.org/2000/svg">
<path d="M1.15906 31.9252H0.00772169V26.5265H1.15906V31.9252Z" fill="#1B1922"/>
<path d="M8.26567 31.9252H7.11433L4.87202 28.3734V31.9252H3.72057V26.5265H4.87202L7.11699 30.0863V26.5265H8.26567V31.9252Z" fill="#1B1922"/>
<path d="M14.8613 27.4274H13.1482V31.9252H11.9969V27.4274H10.3082V26.5266H14.8613V27.4274Z" fill="#1B1922"/>
<path d="M20.3736 29.5849H18.1615V31.0322H20.7564V31.9252H17.0104V26.5266H20.7496V27.4274H18.1615V28.7138H20.3736V29.5849Z" fill="#1B1922"/>
<path d="M24.9946 29.9484H24.0766V31.9252H22.9256V26.5267H25.0027C25.6629 26.5267 26.1712 26.6684 26.5302 26.9534C26.8876 27.2366 27.068 27.6386 27.068 28.1582C27.068 28.5269 26.9849 28.8334 26.8196 29.0798C26.654 29.3259 26.4047 29.5217 26.07 29.6673L27.2788 31.8737V31.9252H26.0417L24.9946 29.9484ZM24.0766 29.0475H25.0068C25.2948 29.0475 25.5188 28.9765 25.6777 28.8347C25.8366 28.6931 25.9152 28.4971 25.9152 28.2471C25.9152 27.992 25.8404 27.7922 25.6909 27.6465C25.5418 27.4996 25.3119 27.4274 25.0027 27.4274H24.0766V29.0475Z" fill="#1B1922"/>
<path d="M30.6616 31.9252H29.5102V26.5265H30.6616V31.9252Z" fill="#1B1922"/>
<path d="M37.8135 29.3479C37.8135 29.88 37.716 30.3454 37.5227 30.7463C37.328 31.1471 37.0491 31.4564 36.6875 31.6727C36.3245 31.8904 35.9099 31.9999 35.4417 31.9999C34.9788 31.9999 34.5653 31.8919 34.2023 31.6766C33.8379 31.4612 33.5567 31.1546 33.3579 30.755C33.1579 30.3555 33.0563 29.8968 33.0536 29.3775V29.1105C33.0536 28.5797 33.1537 28.1119 33.3511 27.7072C33.5499 27.3025 33.8298 26.9933 34.1928 26.7767C34.5545 26.5604 34.968 26.4518 35.4335 26.4518C35.8991 26.4518 36.3141 26.5604 36.6753 26.7767C37.0383 26.9933 37.3186 27.3025 37.516 27.7072C37.7151 28.1119 37.8135 28.5784 37.8135 29.1066V29.3479ZM36.6474 29.103C36.6474 28.5373 36.542 28.1068 36.3326 27.8128C36.1218 27.5189 35.8232 27.3721 35.4335 27.3721C35.0479 27.3721 34.7495 27.5163 34.5396 27.8076C34.3305 28.0976 34.2235 28.5242 34.2209 29.0848V29.3479C34.2209 29.8994 34.3264 30.3271 34.5359 30.6315C34.745 30.9356 35.0479 31.0878 35.4417 31.0878C35.8286 31.0878 36.1248 30.9408 36.3326 30.6482C36.5393 30.3545 36.645 29.9279 36.6474 29.367V29.103Z" fill="#1B1922"/>
<path d="M42.2119 29.9484H41.294V31.9252H40.1429V26.5267H42.22C42.88 26.5267 43.3885 26.6684 43.7474 26.9534C44.1046 27.2366 44.2852 27.6386 44.2852 28.1582C44.2852 28.5269 44.2021 28.8334 44.0368 29.0798C43.8713 29.3259 43.6218 29.5217 43.2872 29.6673L44.4956 31.8737V31.9252H43.2588L42.2119 29.9484ZM41.294 29.0475H42.224C42.5121 29.0475 42.7361 28.9765 42.8951 28.8347C43.0534 28.6931 43.1325 28.4971 43.1325 28.2471C43.1325 27.992 43.0575 27.7922 42.908 27.6465C42.7589 27.4996 42.5292 27.4274 42.22 27.4274H41.294V29.0475Z" fill="#1B1922"/>
<path d="M50.1041 31.9252V26.5265H51.8237C52.3146 26.5265 52.7549 26.6337 53.1418 26.8475C53.5297 27.0616 53.8326 27.3644 54.0502 27.7587C54.2675 28.1531 54.3758 28.6016 54.3758 29.1031V29.3518C54.3758 29.8542 54.2688 30.3001 54.0553 30.6908C53.8421 31.0812 53.5405 31.3841 53.1523 31.5995C52.763 31.8145 52.3241 31.9228 51.8356 31.9252H50.1041ZM51.2553 27.4277V31.0324H51.8116C52.2623 31.0324 52.6067 30.8894 52.8443 30.6058C53.083 30.321 53.2043 29.915 53.21 29.3853V29.1005C53.21 28.5512 53.0922 28.1351 52.8564 27.8516C52.6213 27.5694 52.2772 27.4277 51.8237 27.4277H51.2553Z" fill="#1B1922"/>
<path d="M60.0707 29.5849H57.8588V31.0322H60.4535V31.9252H56.7074V26.5266H60.4469V27.4274H57.8588V28.7138H60.0707V29.5849Z" fill="#1B1922"/>
<path d="M65.5216 30.509C65.5216 30.2988 65.4454 30.1378 65.2923 30.0243C65.1388 29.9122 64.8626 29.7936 64.4625 29.6688C64.0637 29.5437 63.7473 29.4212 63.5151 29.3002C62.8801 28.9687 62.5628 28.5229 62.5628 27.961C62.5628 27.6697 62.6482 27.4094 62.8175 27.1811C62.9882 26.9518 63.2323 26.7741 63.5512 26.645C63.87 26.5163 64.2276 26.4518 64.6237 26.4518C65.0226 26.4518 65.379 26.5217 65.6911 26.662C66.0035 26.8012 66.246 26.9984 66.4179 27.2535C66.5914 27.5074 66.6771 27.7974 66.6771 28.1208H65.5257C65.5257 27.8734 65.4454 27.6815 65.2842 27.5436C65.1227 27.407 64.8958 27.3386 64.6051 27.3386C64.3238 27.3386 64.1049 27.3954 63.9486 27.5113C63.7928 27.6262 63.7142 27.7765 63.7142 27.965C63.7142 28.1403 63.8062 28.2869 63.9887 28.4056C64.1716 28.5255 64.4411 28.6364 64.7974 28.7394C65.4522 28.9304 65.9285 29.166 66.2287 29.4482C66.5273 29.7303 66.6771 30.081 66.6771 30.5011C66.6771 30.9692 66.4942 31.335 66.1285 31.6007C65.7632 31.866 65.2693 31.9999 64.6503 31.9999C64.2209 31.9999 63.8299 31.9239 63.4766 31.7718C63.1231 31.6198 62.8537 31.4111 62.668 31.1471C62.4826 30.8827 62.3908 30.576 62.3908 30.2268H63.5458C63.5458 30.8235 63.9142 31.1209 64.6503 31.1209C64.9242 31.1209 65.1388 31.0669 65.2923 30.9588C65.4454 30.8518 65.5216 30.7009 65.5216 30.509Z" fill="#1B1922"/>
<path d="M70.1736 31.9252H69.0222V26.5265H70.1736V31.9252Z" fill="#1B1922"/>
<path d="M77.1572 31.2436C76.949 31.4834 76.6569 31.6689 76.2781 31.8016C75.8993 31.9331 75.4789 32 75.0187 32C74.5347 32 74.1116 31.8971 73.7459 31.6933C73.3821 31.4896 73.1003 31.1934 72.9016 30.8054C72.7042 30.4175 72.6014 29.9611 72.596 29.4368V29.0696C72.596 28.5308 72.6908 28.0641 72.8786 27.6697C73.0669 27.2755 73.3378 26.974 73.6927 26.7651C74.0476 26.5562 74.4624 26.452 74.9387 26.452C75.6003 26.452 76.1191 26.6054 76.4925 26.9095C76.8665 27.2148 77.0877 27.6594 77.1572 28.2434H76.0367C75.9842 27.934 75.8709 27.7086 75.6965 27.5642C75.5201 27.4211 75.2803 27.3488 74.9732 27.3488C74.5808 27.3488 74.2833 27.4919 74.0782 27.7758C73.8742 28.0602 73.7699 28.4829 73.7672 29.0438V29.3889C73.7672 29.9546 73.8783 30.3825 74.1008 30.6714C74.3238 30.9614 74.6504 31.1057 75.0801 31.1057C75.5124 31.1057 75.8203 31.0167 76.0045 30.8388V29.9083H74.9574V29.0888H77.1572V31.2436Z" fill="#1B1922"/>
<path d="M84.1287 31.9252H82.9778L80.7351 28.3734V31.9252H79.5837V26.5265H80.7351L82.9803 30.0863V26.5265H84.1287V31.9252Z" fill="#1B1922"/>
<path d="M7.29611 9.15253C8.68187 8.52425 9.30432 7.2672 9.30432 5.30044V4.61703C9.30432 1.66637 7.91811 0.218672 4.6945 0.218672H0V19.3431H4.89258C8.00313 19.3431 9.61536 17.7583 9.61536 14.8082V13.2503C9.61536 11.2289 8.96496 9.78053 7.29611 9.15253ZM3.11066 2.95076H4.60948C5.71266 2.95076 6.19299 3.55166 6.19299 4.9175V5.9832C6.19299 7.51326 5.4863 8.00471 4.32684 8.00471H3.11066V2.95076ZM6.5043 14.726C6.5043 16.1466 5.93863 16.6111 4.89258 16.6111H3.11066V10.7368H4.49619C5.9107 10.7368 6.5043 11.2833 6.5043 13.0591V14.726Z" fill="#1B1922"/>
<path d="M11.7741 19.3431H20.2583V16.6111H14.8851V11.0105H18.7706V8.27824H14.8851V2.95076H20.2583V0.218726H11.7741V19.3431Z" fill="#1B1922"/>
<path d="M25.3806 0.218566H22.2696V19.343H29.1258V16.611H25.3806V0.218566Z" fill="#1B1922"/>
<path d="M33.9703 0.218566H30.8593V19.343H37.2921L37.7435 16.611H33.9703V0.218566Z" fill="#1B1922"/>
<path d="M42.2502 0.218566L39.0828 19.343H41.9392L42.3983 16.377H46.3725L46.832 19.343H49.8577L46.6903 0.218566H42.2502ZM44.3715 3.60625L45.8702 13.278L45.9556 13.8004H42.7926L42.8727 13.278L44.3715 3.60625Z" fill="#1B1922"/>
<path d="M58.7581 10.686C60.1443 10.0577 60.8588 8.087 60.8588 6.11987V4.61719C60.8588 1.66643 59.473 0.218461 56.249 0.218461H51.5545V19.3433H54.6652V11.5568H56.0172L58.4603 19.3481H61.5914L58.7133 10.7063L58.7581 10.686ZM54.6652 2.95042H56.1643C57.2674 2.95042 57.7481 3.55177 57.7481 4.91762V6.80263C57.7481 8.33273 57.0414 8.82484 55.8816 8.82484H54.6652V2.95042Z" fill="#1B1922"/>
<path d="M68.1287 0.218566H63.2079V19.343H68.1287C71.2397 19.343 72.7661 17.6766 72.7661 14.6167V4.94505C72.7661 1.88485 71.2397 0.218566 68.1287 0.218566ZM69.6558 14.7533C69.6558 16.1195 69.062 16.611 68.072 16.611H66.3187V2.95054H68.072C69.062 2.95054 69.6558 3.44237 69.6558 4.80849V14.7533Z" fill="#1B1922"/>
<path d="M79.3884 0C76.3345 0 74.666 1.7484 74.666 4.80861V14.7531C74.666 17.8133 76.3345 19.5617 79.3884 19.5617C82.4435 19.5617 84.1113 17.8133 84.1113 14.7531V4.80861C84.1113 1.7484 82.4435 0 79.3884 0ZM81.0007 14.9445C81.0007 16.3102 80.3785 16.8297 79.3884 16.8297C78.3986 16.8297 77.7766 16.3102 77.7766 14.9445V4.61703C77.7766 3.25113 78.3986 2.73198 79.3884 2.73198C80.3785 2.73198 81.0007 3.25113 81.0007 4.61703V14.9445Z" fill="#1B1922"/>
<path d="M85.4068 16.6111L84.9551 19.3431H88V16.6111H85.4068Z" fill="#1B1922"/>
</svg>
